<svg width="1024" height="1024" viewBox="0 0 1024 1024" fill="none" xmlns="http://www.w3.org/2000/svg">
  <rect width="1024" height="1024" rx="240" fill="url(#paint0_linear_1_1)"/>
  <path d="M306 744V280H540C675.3 280 760 355.7 760 474C760 592.3 675.3 668 540 668H420V744H306ZM420 566H526C590.7 566 644 529.7 644 474C644 418.3 590.7 382 526 382H420V566Z" fill="white" fill-rule="evenodd" clip-rule="evenodd"/>
  <path d="M536 474L716 294V394H836V554H716V654L536 474Z" fill="#72E4FF"/>
  <circle cx="737" cy="474" r="40" fill="white" fill-opacity="0.22"/>
  <circle cx="737" cy="474" r="18" fill="white"/>
  <defs>
    <linearGradient id="paint0_linear_1_1" x1="123" y1="82" x2="856" y2="910" gradientUnits="userSpaceOnUse">
      <stop stop-color="#72E4FF"/>
      <stop offset="0.55" stop-color="#7C5CFF"/>
      <stop offset="1" stop-color="#4B2FDE"/>
    </linearGradient>
  </defs>
</svg>